<svg height="511pt" viewBox="0 0 511.99983 511" width="511pt" xmlns="http://www.w3.org/2000/svg"><path d="m511.160156 95.851562c-1.878906-5.425781-6.65625-9.332031-12.347656-10.09375l-64.339844-8.609374-10.710937-63.953126c-.945313-5.648437-4.988281-10.289062-10.453125-12-5.46875-1.710937-11.433594-.207031-15.429688 3.898438l-28.949218 29.695312c-35.472657-18.40625-75.078126-28.175781-116.195313-28.175781-67.507813 0-130.972656 26.289063-178.710937 74.023438-47.734376 47.738281-74.023438 111.207031-74.023438 178.714843 0 67.507813 26.289062 130.976563 74.023438 178.710938 47.738281 47.734375 111.207031 74.023438 178.714843 74.023438 67.507813 0 130.976563-26.289063 178.710938-74.023438s74.023437-111.203125 74.023437-178.710938c0-41.222656-9.816406-80.929687-28.320312-116.476562l30.550781-31.453125c4-4.121094 5.339844-10.144531 3.457031-15.570313zm-76.339844 46.96875-56.820312-7.59375-9.441406-56.492187 30.164062-30.945313 7.609375 45.449219c1.101563 6.582031 6.367188 11.675781 12.980469 12.5625l45.539062 6.09375zm-404.410156 116.53125c0-122.59375 99.734375-222.328124 222.324219-222.328124 33.488281 0 65.261719 7.457031 93.769531 20.769531l-5.101562 5.234375c-3.382813 3.46875-4.90625 8.339844-4.109375 13.121094l6.226562 37.238281c-26.363281-16.457031-57.480469-25.984375-90.78125-25.984375-94.8125 0-171.945312 77.136718-171.945312 171.945312 0 94.8125 77.132812 171.949219 171.945312 171.949219 94.808594 0 171.945313-77.136719 171.945313-171.949219 0-33.253906-9.5-64.328125-25.914063-90.667968l39.609375 5.296874c.671875.089844 1.347656.132813 2.015625.132813 4.078125 0 8.023438-1.644531 10.90625-4.613281l3.257813-3.351563c13.152344 28.363281 20.507812 59.941407 20.507812 93.203125 0 122.59375-99.734375 222.328125-222.328125 222.328125s-222.328125-99.734375-222.328125-222.324219zm278.078125 0c0 30.742188-25.007812 55.753907-55.75 55.753907-30.742187 0-55.753906-25.011719-55.753906-55.753907 0-30.742187 25.011719-55.753906 55.753906-55.753906 9.996094 0 19.378907 2.660156 27.5 7.285156l-38.175781 37.640626c-5.980469 5.894531-6.046875 15.519531-.152344 21.5 2.976563 3.019531 6.898438 4.53125 10.828125 4.53125 3.855469 0 7.710938-1.457032 10.675781-4.375l38.183594-37.648438c4.386719 7.960938 6.890625 17.101562 6.890625 26.820312zm-6.074219-70.335937c-14.050781-9.953125-31.183593-15.828125-49.679687-15.828125-47.507813 0-86.160156 38.652344-86.160156 86.160156 0 47.511719 38.652343 86.164063 86.160156 86.164063 47.511719 0 86.164063-38.652344 86.164063-86.164063 0-18.054687-5.59375-34.824218-15.125-48.683594l39.792968-39.234374c19.210938 24.164062 30.707032 54.722656 30.707032 87.921874 0 78.042969-63.496094 141.535157-141.539063 141.535157s-141.535156-63.492188-141.535156-141.535157c0-78.046874 63.492187-141.539062 141.535156-141.539062 33.914063 0 65.082031 11.996094 89.484375 31.960938zm0 0"/></svg>